<?xml version="1.0" standalone="no"?>
<!DOCTYPE svg PUBLIC "-//W3C//DTD SVG 20010904//EN"
 "http://www.w3.org/TR/2001/REC-SVG-20010904/DTD/svg10.dtd">
<svg version="1.0" xmlns="http://www.w3.org/2000/svg"
 width="512.000000pt" height="512.000000pt" viewBox="0 0 512.000000 512.000000"
 preserveAspectRatio="xMidYMid meet">

<g transform="translate(0.000000,512.000000) scale(0.100000,-0.100000)"
fill="#000000" stroke="none">
<path d="M2290 4755 c-947 -118 -1719 -836 -1900 -1769 -54 -280 -54 -572 0
-852 82 -419 278 -795 579 -1107 525 -544 1275 -781 2017 -637 260 51 535 159
754 298 204 130 452 360 593 550 472 638 569 1463 258 2196 -107 252 -257 473
-466 682 -303 305 -638 495 -1050 595 -233 56 -544 74 -785 44z m570 -141
c342 -49 661 -183 950 -398 l95 -71 -75 -3 c-94 -4 -120 -21 -84 -56 12 -13
39 -16 129 -16 l113 0 82 -87 c89 -95 192 -229 257 -333 39 -62 113 -204 113
-215 0 -3 -38 -5 -84 -5 -95 0 -125 -15 -106 -51 10 -17 22 -19 119 -19 l109
0 30 -82 c43 -120 68 -209 92 -327 135 -681 -100 -1410 -609 -1893 -52 -49
-107 -98 -123 -109 l-28 -20 0 210 0 210 103 3 c101 3 102 3 102 28 0 25 -1
25 -102 28 l-103 3 0 561 0 561 35 118 35 119 0 282 0 283 -48 130 -49 130
-134 5 -134 5 -2 114 -1 114 -93 136 c-50 75 -99 144 -107 154 -14 16 -61 17
-786 15 l-771 -3 -102 -150 -102 -150 -3 -115 -3 -115 -135 -5 -134 -5 -47
-125 -47 -125 -1 -289 -1 -288 45 -125 45 -124 0 -634 0 -635 -94 0 c-105 0
-136 -13 -116 -51 10 -17 22 -19 110 -19 l100 0 0 -130 c0 -71 -4 -130 -8
-130 -4 0 -48 35 -97 78 -281 244 -491 561 -605 912 -26 80 -50 159 -53 177
l-6 32 112 3 112 3 0 25 0 25 -120 5 -120 5 -12 80 c-68 473 33 960 289 1383
l49 82 103 0 c82 0 106 3 117 16 26 32 -1 49 -86 54 l-79 5 75 90 c358 429
891 698 1459 739 93 6 319 -4 430 -20z m-809 -651 l-48 -108 -161 -3 c-89 -1
-162 0 -162 3 0 3 32 53 70 110 l70 105 140 0 139 0 -48 -107z m943 2 c25 -58
46 -108 46 -110 0 -3 -216 -5 -480 -5 -264 0 -480 2 -480 5 0 2 21 52 46 110
l46 105 388 0 388 0 46 -105z m358 23 c30 -46 63 -95 72 -110 l18 -28 -161 0
-162 0 -18 43 c-11 23 -33 72 -50 110 l-30 67 138 0 138 0 55 -82z m-1362
-292 l0 -84 -153 -7 c-84 -4 -162 -6 -173 -4 -17 4 -19 14 -22 92 l-3 87 176
0 175 0 0 -84z m1070 -1 l0 -85 -500 0 -500 0 0 85 0 85 500 0 500 0 0 -85z
m418 -2 c-3 -78 -5 -88 -22 -92 -11 -2 -89 0 -173 4 l-153 7 0 84 0 84 175 0
176 0 -3 -87z m-1678 -157 c0 -2 -14 -41 -31 -85 l-31 -81 -219 0 c-120 0
-219 3 -219 6 0 8 49 144 56 155 5 9 444 13 444 5z m1909 -6 l56 0 28 -73 c15
-41 27 -77 27 -80 0 -4 -99 -7 -219 -7 l-219 0 -31 81 c-17 44 -31 83 -31 86
0 4 75 3 167 0 91 -4 191 -7 222 -7z m-433 -69 c13 -35 24 -70 24 -77 0 -12
-118 -14 -740 -14 -585 0 -740 3 -740 13 0 6 9 37 20 67 12 30 23 61 25 68 4
10 148 12 696 10 l691 -3 24 -64z m-1546 -285 c0 -98 -3 -126 -15 -136 -12
-10 -15 -37 -15 -126 l0 -114 -50 0 -50 0 0 117 0 117 -52 53 c-29 29 -61 53
-72 53 -11 0 -46 -26 -78 -57 l-58 -57 0 -113 0 -113 -30 0 -30 0 0 250 0 250
225 0 225 0 0 -124z m1590 40 l0 -83 -26 5 c-21 4 -36 -6 -85 -54 l-59 -58 0
-113 0 -113 -50 0 -50 0 0 119 0 118 -54 52 c-30 28 -63 51 -73 51 -10 0 -44
-26 -76 -58 l-57 -58 0 -112 0 -112 -50 0 -50 0 0 119 0 119 -59 51 c-32 28
-64 51 -71 51 -7 0 -39 -23 -71 -51 l-59 -51 0 -119 0 -119 -50 0 -50 0 0 112
0 112 -57 58 c-32 32 -66 58 -76 58 -10 0 -43 -23 -73 -51 l-54 -52 0 -118 0
-119 -50 0 -50 0 0 113 0 113 -59 58 c-49 48 -64 58 -85 54 l-26 -5 0 83 0 84
760 0 760 0 0 -84z m520 -166 l0 -250 -30 0 -30 0 0 113 0 113 -58 57 c-33 32
-66 57 -78 57 -12 0 -44 -24 -77 -59 l-57 -60 0 -110 0 -111 -45 0 -45 0 0
114 c0 89 -3 116 -15 126 -12 10 -15 38 -15 136 l0 124 225 0 225 0 0 -250z
m-2310 -147 l0 -103 -60 0 -60 0 0 97 c0 96 0 98 32 130 l32 33 28 -27 c27
-26 28 -30 28 -130z m370 -5 l0 -98 -65 0 -65 0 0 97 c0 96 0 98 32 130 l32
33 33 -32 c33 -32 33 -32 33 -130z m360 0 l0 -98 -60 0 -60 0 0 102 c0 97 1
103 27 130 l27 28 33 -32 c33 -32 33 -32 33 -130z m720 5 l0 -103 -60 0 -60 0
0 97 c0 96 0 98 32 130 l32 33 28 -27 c27 -26 28 -30 28 -130z m370 -5 l0 -98
-65 0 -65 0 0 97 c0 96 0 98 32 130 l32 33 33 -32 c33 -32 33 -32 33 -130z
m360 0 l0 -98 -60 0 -60 0 0 102 c0 97 1 103 27 130 l27 28 33 -32 c33 -32 33
-32 33 -130z m-1116 131 c25 -20 26 -24 26 -125 l0 -104 -60 0 -60 0 0 104 c0
101 1 105 26 125 15 12 30 21 34 21 4 0 19 -9 34 -21z m-824 -381 l29 -78
-222 0 -222 0 -28 73 c-15 41 -27 77 -27 81 0 3 99 5 221 4 l221 -3 28 -77z
m1530 70 c0 -7 -12 -43 -26 -80 l-26 -68 -688 0 -688 0 -26 68 c-14 37 -26 73
-26 80 0 9 161 12 740 12 579 0 740 -3 740 -12z m520 1 c0 -7 -9 -43 -20 -80
l-21 -69 -229 0 -230 0 11 28 c6 15 20 51 31 80 l19 52 220 0 c157 0 219 -3
219 -11z m-50 -534 l0 -315 -64 0 c-45 0 -69 -5 -80 -16 -14 -14 -16 -78 -16
-552 l0 -537 -40 -22 -40 -21 0 732 0 733 -23 34 c-12 19 -39 43 -60 54 l-37
20 -38 -21 c-20 -12 -46 -34 -57 -49 -20 -26 -20 -44 -23 -820 l-2 -793 -47
-16 c-26 -9 -50 -16 -55 -16 -4 0 -9 276 -10 613 l-3 612 -33 67 c-62 127
-248 282 -471 393 -114 57 -111 57 -280 -39 -209 -120 -342 -240 -404 -365
l-32 -66 -5 -611 -5 -612 -52 20 -53 19 0 799 0 799 -37 36 c-20 19 -47 38
-59 41 -28 7 -75 -17 -108 -56 l-26 -32 0 -743 0 -744 -45 26 -45 25 0 548 c0
490 -2 548 -16 554 -9 3 -45 6 -80 6 l-64 0 0 308 c0 170 3 312 7 315 3 4 546
7 1205 7 l1198 0 0 -315z m-1114 14 c205 -107 380 -254 435 -365 l24 -49 3
-609 c1 -335 -1 -613 -5 -617 -4 -4 -25 -11 -45 -14 l-38 -7 0 611 c0 516 -2
617 -15 647 -34 82 -251 261 -400 330 l-50 23 -75 -41 c-170 -93 -316 -214
-362 -300 l-23 -43 -3 -616 -3 -617 -39 10 -40 10 0 612 0 611 29 62 c34 71
121 163 221 235 71 50 278 168 296 168 6 0 46 -19 90 -41z m-899 -1 l23 -21 0
-769 c0 -422 -3 -768 -7 -768 -4 0 -27 8 -50 17 l-43 18 0 757 0 757 22 15
c28 20 27 20 55 -6z m1678 6 l25 -16 0 -752 0 -752 -50 -21 -50 -21 0 766 0
766 22 23 c26 27 23 27 53 7z m-781 -176 c154 -90 271 -193 302 -265 11 -26
14 -144 14 -637 l0 -604 -22 -6 c-13 -3 -33 -6 -45 -6 l-23 0 0 615 0 616 -47
50 c-52 55 -230 179 -261 182 -30 2 -170 -91 -246 -163 l-68 -66 -3 -379 c-1
-209 -3 -488 -3 -621 l-2 -241 -37 6 -38 6 -3 600 c-1 330 0 614 3 632 7 38
79 121 158 182 70 53 216 141 236 141 8 0 47 -19 85 -42z m-4 -173 c37 -25 90
-66 118 -93 l50 -47 0 -585 c1 -322 -2 -597 -4 -612 -7 -33 -39 -38 -47 -8 -8
31 -55 27 -63 -5 -4 -18 -13 -25 -30 -25 -14 0 -22 5 -19 13 8 20 -11 39 -36
35 -18 -2 -24 -9 -23 -25 0 -19 -5 -23 -28 -23 -23 0 -28 4 -28 26 0 22 -4 25
-27 22 -20 -2 -29 -9 -31 -25 -5 -32 -49 -32 -54 0 -4 30 -47 37 -55 8 -3 -14
-13 -21 -29 -21 l-24 0 0 613 0 613 43 41 c50 50 185 143 205 143 8 0 45 -20
82 -45z m-1190 -556 l0 -501 -22 14 c-13 8 -33 21 -45 29 l-23 14 0 472 0 473
45 0 45 0 0 -501z m2310 36 l0 -464 -45 -31 -45 -31 0 496 0 495 45 0 45 0 0
-465z"/>
<path d="M2481 4511 c-6 -11 -11 -26 -11 -35 0 -9 -11 -16 -27 -18 -22 -2 -29
-9 -31 -30 -3 -22 2 -27 27 -33 23 -5 31 -13 36 -36 6 -25 11 -30 33 -27 21 2
28 9 30 31 2 18 9 27 21 27 31 0 54 24 47 48 -5 16 -15 22 -36 22 -25 0 -29 4
-32 33 -4 39 -40 51 -57 18z"/>
<path d="M900 2821 c-5 -11 -10 -26 -10 -35 0 -9 -11 -16 -27 -18 -22 -2 -29
-9 -31 -31 -3 -23 1 -28 27 -33 23 -5 31 -13 36 -36 6 -24 11 -29 33 -26 21 2
28 9 30 29 2 21 10 28 33 33 16 3 32 12 35 21 9 21 -14 45 -42 45 -18 0 -24 5
-24 23 0 44 -41 63 -60 28z"/>
<path d="M4239 2274 c-10 -12 -10 -19 -1 -32 23 -32 24 -43 8 -61 -38 -42 -5
-76 46 -47 27 17 30 17 48 1 39 -35 80 6 45 45 -15 17 -15 20 0 44 31 47 -8
85 -49 47 l-23 -21 -18 20 c-22 24 -38 25 -56 4z"/>
<path d="M2377 1654 c-12 -12 -8 -41 8 -54 20 -17 47 5 43 34 -3 21 -37 34
-51 20z"/>
<path d="M2492 1648 c-17 -17 -15 -36 6 -47 25 -13 44 1 40 30 -3 27 -27 36
-46 17z"/>
<path d="M2602 1648 c-30 -30 9 -69 44 -43 15 11 17 17 8 32 -14 23 -36 27
-52 11z"/>
<path d="M2710 1641 c-14 -28 13 -55 41 -41 22 12 25 30 7 48 -18 18 -36 15
-48 -7z"/>
<path d="M2407 1513 c-13 -13 -7 -51 9 -57 20 -8 44 11 44 34 0 23 -37 39 -53
23z"/>
<path d="M2547 1513 c-13 -13 -7 -51 9 -57 20 -8 44 11 44 34 0 23 -37 39 -53
23z"/>
<path d="M2687 1513 c-13 -13 -7 -51 9 -57 20 -8 44 11 44 34 0 23 -37 39 -53
23z"/>
<path d="M2383 1373 c-17 -6 -16 -38 1 -52 20 -16 46 -3 46 24 0 18 -22 40
-33 34 -1 0 -8 -3 -14 -6z"/>
<path d="M2492 1368 c-16 -16 -15 -33 2 -47 22 -18 48 -2 44 28 -3 28 -27 38
-46 19z"/>
<path d="M2602 1368 c-16 -16 -15 -33 2 -47 28 -23 68 17 45 45 -14 17 -31 18
-47 2z"/>
<path d="M2710 1361 c-7 -15 -6 -24 6 -36 19 -18 33 -16 48 7 7 12 6 21 -3 32
-18 22 -38 20 -51 -3z"/>
<path d="M2413 1233 c-19 -7 -16 -50 4 -57 24 -10 51 20 37 41 -12 19 -23 24
-41 16z"/>
<path d="M2553 1233 c-19 -7 -16 -50 4 -57 24 -10 51 20 37 41 -12 19 -23 24
-41 16z"/>
<path d="M2693 1233 c-18 -7 -16 -52 3 -60 23 -9 51 23 38 44 -12 19 -23 24
-41 16z"/>
<path d="M2382 1088 c-27 -27 5 -73 38 -53 16 10 12 52 -6 59 -20 8 -18 8 -32
-6z"/>
<path d="M2489 1084 c-16 -20 0 -49 27 -49 35 0 28 64 -7 65 -4 0 -12 -7 -20
-16z"/>
<path d="M2600 1086 c-27 -33 18 -72 48 -42 13 13 14 20 6 34 -15 23 -38 26
-54 8z"/>
<path d="M2716 1085 c-12 -12 -13 -21 -6 -36 13 -23 33 -25 51 -3 9 11 10 20
3 32 -15 23 -29 25 -48 7z"/>
<path d="M2413 953 c-15 -6 -17 -49 -3 -58 33 -20 65 26 38 53 -13 13 -16 13
-35 5z"/>
<path d="M2553 953 c-15 -6 -17 -49 -3 -58 33 -20 65 26 38 53 -13 13 -16 13
-35 5z"/>
<path d="M2693 953 c-15 -6 -17 -49 -3 -58 33 -20 65 26 38 53 -13 13 -16 13
-35 5z"/>
<path d="M2495 806 c-25 -18 -15 -51 15 -51 20 0 26 6 28 26 4 31 -18 44 -43
25z"/>
<path d="M2604 806 c-20 -15 -14 -43 12 -53 20 -8 47 19 39 39 -9 23 -30 29
-51 14z"/>
<path d="M2715 804 c-18 -19 -16 -33 7 -48 12 -7 21 -6 32 3 22 18 20 38 -3
51 -15 7 -24 6 -36 -6z"/>
<path d="M2374 796 c-10 -26 4 -48 28 -44 17 2 23 10 23 28 0 18 -6 26 -23 28
-13 2 -25 -3 -28 -12z"/>
<path d="M2402 643 c2 -22 8 -28 28 -28 20 0 25 5 25 25 0 20 -6 26 -28 28
-26 3 -28 1 -25 -25z"/>
<path d="M2542 643 c2 -22 8 -28 28 -28 20 0 25 5 25 25 0 20 -6 26 -28 28
-26 3 -28 1 -25 -25z"/>
<path d="M2682 643 c2 -22 8 -28 28 -28 20 0 25 5 25 25 0 20 -6 26 -28 28
-26 3 -28 1 -25 -25z"/>
</g>
</svg>
